<svg id="Calque_1" data-name="Calque 1" xmlns="http://www.w3.org/2000/svg" viewBox="0 0 888 484.74"><defs><style>.cls-1{fill:none;}.cls-2{fill:#1d1d1b;stroke:#1d1d1b;stroke-miterlimit:10;stroke-width:5px;}</style></defs><path d="M130.21,360.61v-50.2h179.4v50.2H254.24V516.69h-69V360.61Z" transform="translate(-130.21 -112.06)"/><path d="M421.65,363.2h69V515.07H424.56l-.32-10q-8.43,5.84-21.38,9.55a105.5,105.5,0,0,1-29.14,3.73q-26.24,0-41.12-15.06t-14.9-43.88V363.2h69v89.37q0,15.23,15.22,15.22a26.64,26.64,0,0,0,11.17-2.59,23.62,23.62,0,0,0,8.59-6.15Z" transform="translate(-130.21 -112.06)"/><path d="M604,364.49A110.39,110.39,0,0,1,632.77,360v51.16q-8.1.33-17.81,1.62a159.13,159.13,0,0,0-18.46,2.91,66.51,66.51,0,0,0-14.89,4.21v95.21h-69V363.2H581l.32,10.68Q589.71,368.71,604,364.49Z" transform="translate(-130.21 -112.06)"/><path d="M803.91,377.93q19.59,18,19.59,60.07,0,40.49-19.43,60.39t-51.81,19.92q-14.25,0-24.77-3.73a73.25,73.25,0,0,1-19.6-10.52l-3.23,11H645.07v-216h69v68.33a56.75,56.75,0,0,1,16.51-5.51A101,101,0,0,1,749.67,360Q784.31,360,803.91,377.93Zm-55.86,84.35q5.18-6.79,5.18-23.47T748.05,416q-5.19-6.15-15.55-6.15-11.32,0-18.45,6.15v46a35,35,0,0,0,8.25,5.18,24.88,24.88,0,0,0,10.2,1.94Q742.87,469.08,748.05,462.28Z" transform="translate(-130.21 -112.06)"/><path d="M995.22,380Q972.22,360,925.6,360T856.3,380q-22.66,20.09-22.66,59.1t22.5,59.1q22.5,20.09,69.46,20.08t69.78-20.08q22.83-20.07,22.83-59.1T995.22,380Zm-95.54.06h52.51v32.23l-2,57.13H901.66l-2-57.13ZM953.51,503H898.36V481h55.15Z" transform="translate(-130.21 -112.06)"/><path d="M333.47,282.84C337,222.62,380.27,148,464.76,121.26c86.1-27.25,169.62,9.49,210.67,64.6-9.14,3.54-18.19,7.07-27.25,10.55-11.32,4.35-22.72,8.53-34,13.08-2.91,1.18-4.37.62-6.3-1.61-24.72-28.41-55.88-46.15-93.29-52-48.19-7.54-91.3,4.75-128.41,36-27.83,23.4-44.91,53.28-52,88.7A18,18,0,0,1,333.47,282.84Z" transform="translate(-130.21 -112.06)"/><path d="M689.86,196.7c-1.26.92-2.51,1.88-3.8,2.77q-70.44,48.14-140.83,96.32a13.7,13.7,0,0,0-4.38,5.17,30.41,30.41,0,0,1-37.34,15.75,29.69,29.69,0,0,1-19.32-35.56c3.84-14.72,18.68-24.15,34.07-21.87a15,15,0,0,0,7.2-.75Q605.27,228.05,685,197.38c1.46-.56,2.94-1,4.41-1.56Z" transform="translate(-130.21 -112.06)"/><path d="M634.61,251.72l58.86-40.19c4.3,11.05,8.81,21.33,12.31,31.93A170.83,170.83,0,0,1,714,298.35c0,3.67-.86,5.24-4.94,5.2-19.74-.16-39.49-.08-59.23-.07-2.35,0-4.56,0-4.72-3.27A154.08,154.08,0,0,0,634.61,251.72Z" transform="translate(-130.21 -112.06)"/><path d="M450.71,552.53v-4.86H501.9v4.86H480.41V596H472.2V552.53Z" transform="translate(-130.21 -112.06)"/><path d="M531.7,546.91q15.19,0,22.5,6t7.3,19q0,13-7.3,19t-22.5,6q-15.21,0-22.5-6t-7.3-19q0-13,7.3-19T531.7,546.91Zm12.06,42.75a13.42,13.42,0,0,0,7.1-6.22q2.32-4.34,2.33-11.58t-2.33-11.58a13.44,13.44,0,0,0-7.1-6.23,39.22,39.22,0,0,0-24.12,0,13.71,13.71,0,0,0-7.15,6.19q-2.39,4.29-2.38,11.58t2.38,11.62a13.64,13.64,0,0,0,7.15,6.22,39.22,39.22,0,0,0,24.12,0Z" transform="translate(-130.21 -112.06)"/><path d="M599.2,546.91q15.21,0,22.51,6t7.29,19q0,13-7.29,19t-22.51,6q-15.19,0-22.5-6t-7.3-19q0-13,7.3-19T599.2,546.91Zm12.07,42.75a13.4,13.4,0,0,0,7.09-6.22q2.34-4.34,2.33-11.58t-2.33-11.58a13.41,13.41,0,0,0-7.09-6.23,39.26,39.26,0,0,0-24.13,0,13.65,13.65,0,0,0-7.14,6.19q-2.38,4.29-2.39,11.58T580,583.44a13.58,13.58,0,0,0,7.14,6.22,39.26,39.26,0,0,0,24.13,0Z" transform="translate(-130.21 -112.06)"/><path d="M647.45,547.67v43.59h34.36V596H639.24V547.67Z" transform="translate(-130.21 -112.06)"/><path d="M694.18,591.26h37.1V596H683.43v-3.49l36.9-40H685.16v-4.86h45.61v3.8Z" transform="translate(-130.21 -112.06)"/><rect class="cls-1" x="768.15" y="368.97" width="55.15" height="22"/><path class="cls-1" d="M899.68,380.09v32.23l2,57.13H950.2l2-57.13V380.09Z" transform="translate(-130.21 -112.06)"/><line class="cls-2" x1="622.15" y1="451.86" x2="863.03" y2="451.86"/><line class="cls-2" x1="622.15" y1="461.86" x2="863.03" y2="461.86"/><line class="cls-2" x1="65.63" y1="451.86" x2="306.52" y2="451.86"/><line class="cls-2" x1="65.63" y1="461.86" x2="306.52" y2="461.86"/><line class="cls-2" x1="65.63" y1="451.86" x2="306.52" y2="451.86"/><line class="cls-2" x1="65.63" y1="461.86" x2="306.52" y2="461.86"/></svg>